<svg width="217" height="29" viewBox="0 0 217 29" fill="none" xmlns="http://www.w3.org/2000/svg">
<path d="M0.839531 28V-1.90735e-06H7.31953V22.72H21.3595V28H0.839531ZM24.9802 28V-1.90735e-06H31.4602V28H24.9802ZM38.1052 28V-1.90735e-06H43.4652L55.3852 19.76H52.5452L64.2652 -1.90735e-06H69.5852L69.6652 28H63.5852L63.5452 9.32H64.6652L55.3052 25.04H52.3852L42.8252 9.32H44.1852V28H38.1052ZM72.6283 28L85.1083 -1.90735e-06H91.5083L104.028 28H97.2283L86.9883 3.28H89.5483L79.2683 28H72.6283ZM78.8683 22L80.5883 17.08H94.9883L96.7483 22H78.8683Z" fill="white"/>
<path d="M118.261 28V-1.90735e-06H123.621L140.141 20.16H137.541V-1.90735e-06H143.941V28H138.621L122.061 7.84H124.661V28H118.261ZM156.566 12.6H170.006V17.8H156.566V12.6ZM157.046 28H150.566V-1.90735e-06H171.726V5.2H157.046V28ZM182.108 28V5.28H173.148V-1.90735e-06H197.548V5.28H188.588V28H182.108ZM206.35 28.32C204.51 28.32 202.737 28.1067 201.03 27.68C199.35 27.2267 198.017 26.6667 197.03 26L199.11 21.52C200.097 22.1333 201.257 22.64 202.59 23.04C203.95 23.4133 205.284 23.6 206.59 23.6C208.03 23.6 209.044 23.4267 209.63 23.08C210.244 22.7333 210.55 22.2533 210.55 21.64C210.55 21.1333 210.31 20.76 209.83 20.52C209.377 20.2533 208.764 20.0533 207.99 19.92C207.217 19.7867 206.364 19.6533 205.43 19.52C204.524 19.3867 203.604 19.2133 202.67 19C201.737 18.76 200.884 18.4133 200.11 17.96C199.337 17.5067 198.71 16.8933 198.23 16.12C197.777 15.3467 197.55 14.3467 197.55 13.12C197.55 11.76 197.937 10.56 198.71 9.52C199.51 8.48 200.657 7.66667 202.15 7.08C203.644 6.46667 205.43 6.16 207.51 6.16C208.977 6.16 210.47 6.32 211.99 6.64C213.51 6.96 214.777 7.42667 215.79 8.04L213.71 12.48C212.67 11.8667 211.617 11.4533 210.55 11.24C209.51 11 208.497 10.88 207.51 10.88C206.124 10.88 205.11 11.0667 204.47 11.44C203.83 11.8133 203.51 12.2933 203.51 12.88C203.51 13.4133 203.737 13.8133 204.19 14.08C204.67 14.3467 205.297 14.56 206.07 14.72C206.844 14.88 207.684 15.0267 208.59 15.16C209.524 15.2667 210.457 15.44 211.39 15.68C212.324 15.92 213.164 16.2667 213.91 16.72C214.684 17.1467 215.31 17.7467 215.79 18.52C216.27 19.2667 216.51 20.2533 216.51 21.48C216.51 22.8133 216.11 24 215.31 25.04C214.51 26.0533 213.35 26.8533 211.83 27.44C210.337 28.0267 208.51 28.32 206.35 28.32Z" fill="#7ED957"/>
</svg>
